<svg xmlns="http://www.w3.org/2000/svg" width="60.009" height="60.008" viewBox="0 0 60.009 60.008">
    <defs>
        <style>
            .cls-1{fill:#0f8bec}
        </style>
    </defs>
    <g id="_001-email" data-name="001-email">
        <g id="Grupo_62" data-name="Grupo 62">
            <g id="Grupo_61" data-name="Grupo 61">
                <path id="Trazado_409" d="M60 22.945a.945.945 0 0 0-.041-.2 1 1 0 0 0-.057-.172.9.9 0 0 0-.1-.153.943.943 0 0 0-.133-.155c-.016-.014-.023-.033-.04-.047l-9.619-7.47V7a3 3 0 0 0-3-3H36.168L31.828.632a2.966 2.966 0 0 0-3.648 0L23.84 4H13a3 3 0 0 0-3 3v7.743L.384 22.215c-.017.014-.024.033-.04.047a.938.938 0 0 0-.133.155.893.893 0 0 0-.1.153.987.987 0 0 0-.057.172.948.948 0 0 0-.041.2c0 .021-.012.039-.012.06v34.01a2.967 2.967 0 0 0 .587 1.765c.006.009.007.02.014.028s.022.017.032.028A2.986 2.986 0 0 0 3 60.012h54.009a2.987 2.987 0 0 0 2.372-1.184c.008-.01.02-.013.027-.023s.008-.019.014-.028a2.968 2.968 0 0 0 .587-1.765V23.005c.001-.021-.009-.039-.009-.06zM29.4 2.21a.959.959 0 0 1 1.193 0L32.9 4h-5.8zM3.251 58.012L29.4 37.7a.96.96 0 0 1 1.193 0l26.16 20.315zm54.759-1.559L31.828 36.119a2.968 2.968 0 0 0-3.648 0L2 56.453V24.528l16.39 12.728a1 1 0 1 0 1.226-1.581L2.964 22.745 10 17.277v7.729a1 1 0 1 0 2 0V7a1 1 0 0 1 1-1h34.007a1 1 0 0 1 1 1v18a1 1 0 1 0 2 0v-7.723l7.036 5.468L40.364 35.7a1 1 0 1 0 1.226 1.58l16.419-12.752v31.925z" class="cls-1" data-name="Trazado 409" transform="translate(-.001 -.004)"/>
                <path id="Trazado_410" d="M177.579 84.24v-4a12 12 0 1 0-12 12 1 1 0 1 0 0-2 10 10 0 1 1 10-10v4a2 2 0 1 1-4 0v-4a1 1 0 0 0-2 0 4 4 0 1 1-4-4 1 1 0 0 0 0-2 6 6 0 1 0 4.044 10.423 3.99 3.99 0 0 0 7.959-.421z" class="cls-1" data-name="Trazado 410" transform="translate(-135.574 -60.239)"/>
            </g>
        </g>
    </g>
</svg>
