<svg xmlns="http://www.w3.org/2000/svg" width="114.127" height="81.834" viewBox="0 0 114.127 81.834">
    <defs>
        <style>
            .cls-1{fill:#0f8bec}
        </style>
    </defs>
    <g id="_002-breast-enlargement" data-name="002-breast-enlargement">
        <path id="Trazado_17" d="M191.549 237.037c-.337.329-.686.653-1.04.965a1.9 1.9 0 0 0 2.507 2.845c.4-.354.8-.724 1.184-1.1a1.9 1.9 0 1 0-2.651-2.712zm0 0" class="cls-1" data-name="Trazado 17" transform="translate(-141.861 -176.703)"/>
        <path id="Trazado_18" d="M46.29 247.495a1.9 1.9 0 0 0 1.068-3.466 26.935 26.935 0 0 1-2.274-1.726 1.9 1.9 0 0 0-2.45 2.895 30.93 30.93 0 0 0 2.594 1.969 1.887 1.887 0 0 0 1.062.328zm0 0" class="cls-1" data-name="Trazado 18" transform="translate(-31.353 -180.705)"/>
        <path id="Trazado_19" d="M120.9 267.984a27.1 27.1 0 0 1-2.851.172 1.9 1.9 0 0 0 .015 3.793h.016a30.913 30.913 0 0 0 3.248-.2 1.9 1.9 0 0 0-.428-3.769zm0 0" class="cls-1" data-name="Trazado 19" transform="translate(-86.794 -200.22)"/>
        <path id="Trazado_20" d="M157.459 261.457a1.886 1.886 0 0 0 .675-.125 29.836 29.836 0 0 0 2.98-1.325 1.9 1.9 0 1 0-1.726-3.376 26.422 26.422 0 0 1-2.6 1.159 1.9 1.9 0 0 0 .677 3.668zm0 0" class="cls-1" data-name="Trazado 20" transform="translate(-116.23 -191.59)"/>
        <path id="Trazado_21" d="M3.137 134.547a31.168 31.168 0 0 0-.508 3.216 1.9 1.9 0 1 0 3.772.392 27.068 27.068 0 0 1 .446-2.82 1.9 1.9 0 0 0-3.711-.788zm0 0" class="cls-1" data-name="Trazado 21" transform="translate(-1.957 -99.407)"/>
        <path id="Trazado_22" d="M7.658 177.5a26.246 26.246 0 0 1-.584-2.787 1.9 1.9 0 0 0-3.749.573 30.322 30.322 0 0 0 .668 3.192 1.9 1.9 0 0 0 3.665-.978zm0 0" class="cls-1" data-name="Trazado 22" transform="translate(-2.468 -129.338)"/>
        <path id="Trazado_23" d="M19.953 211.941a1.9 1.9 0 1 0-3.3 1.863 30.376 30.376 0 0 0 1.749 2.748 1.9 1.9 0 0 0 3.085-2.205 26.962 26.962 0 0 1-1.532-2.4zm0 0" class="cls-1" data-name="Trazado 23" transform="translate(-12.257 -157.634)"/>
        <path id="Trazado_24" d="M15.534 106.157a1.9 1.9 0 0 0 1.71-1.072c.205-.427.424-.851.65-1.263A1.9 1.9 0 0 0 14.566 102c-.256.468-.5.951-.738 1.435a1.9 1.9 0 0 0 1.706 2.721zm0 0" class="cls-1" data-name="Trazado 24" transform="translate(-10.19 -75.475)"/>
        <path id="Trazado_25" d="M245.134 241.322a1.9 1.9 0 0 0 1.254-3.322c-.354-.311-.7-.636-1.04-.965a1.9 1.9 0 0 0-2.65 2.713c.383.374.781.744 1.184 1.1a1.887 1.887 0 0 0 1.251.473zm0 0" class="cls-1" data-name="Trazado 25" transform="translate(-180.909 -176.703)"/>
        <path id="Trazado_26" d="M387.91 242.3a27.257 27.257 0 0 1-2.274 1.726 1.9 1.9 0 1 0 2.13 3.138 30.921 30.921 0 0 0 2.593-1.969 1.9 1.9 0 1 0-2.449-2.895zm0 0" class="cls-1" data-name="Trazado 26" transform="translate(-287.513 -180.705)"/>
        <path id="Trazado_27" d="M273.793 261.329a1.9 1.9 0 0 0 1.351-3.544 26.407 26.407 0 0 1-2.6-1.158 1.9 1.9 0 1 0-1.73 3.373 30.156 30.156 0 0 0 2.98 1.325zm0 0" class="cls-1" data-name="Trazado 27" transform="translate(-201.571 -191.588)"/>
        <path id="Trazado_28" d="M433.418 173.127a1.9 1.9 0 0 0-2.161 1.588 26.006 26.006 0 0 1-.584 2.787 1.9 1.9 0 0 0 3.665.978 30.079 30.079 0 0 0 .668-3.192 1.9 1.9 0 0 0-1.588-2.161zm0 0" class="cls-1" data-name="Trazado 28" transform="translate(-321.736 -129.338)"/>
        <path id="Trazado_29" d="M435.635 134.546a1.9 1.9 0 1 0-3.711.787 27.13 27.13 0 0 1 .446 2.821 1.9 1.9 0 0 0 1.883 1.7 1.928 1.928 0 0 0 .2-.01 1.9 1.9 0 0 0 1.69-2.082 31.177 31.177 0 0 0-.508-3.216zm0 0" class="cls-1" data-name="Trazado 29" transform="translate(-322.688 -99.405)"/>
        <path id="Trazado_30" d="M313.128 268.156a27.334 27.334 0 0 1-2.85-.173 1.9 1.9 0 0 0-.429 3.769 31.2 31.2 0 0 0 3.249.2h.015a1.9 1.9 0 0 0 .015-3.793zm0 0" class="cls-1" data-name="Trazado 30" transform="translate(-230.251 -200.219)"/>
        <path id="Trazado_31" d="M417.964 211.221a1.9 1.9 0 0 0-2.584.72 27.1 27.1 0 0 1-1.532 2.4 1.9 1.9 0 0 0 3.085 2.205 30.249 30.249 0 0 0 1.749-2.748 1.9 1.9 0 0 0-.718-2.577zm0 0" class="cls-1" data-name="Trazado 31" transform="translate(-308.949 -157.634)"/>
        <path id="Trazado_32" d="M422.6 106.156a1.9 1.9 0 0 0 1.706-2.721 31.259 31.259 0 0 0-.738-1.435 1.9 1.9 0 0 0-3.326 1.821c.225.412.443.837.65 1.263a1.9 1.9 0 0 0 1.708 1.072zm0 0" class="cls-1" data-name="Trazado 32" transform="translate(-313.814 -75.474)"/>
        <path id="Trazado_33" d="M51.974 39.326a1.9 1.9 0 0 0-1.9 1.9 19.059 19.059 0 0 1-38.095.942 19.687 19.687 0 0 1 4.196-12.798 16.08 16.08 0 0 0 2.551-14.906 1.9 1.9 0 0 0-3.611 1.16 12.585 12.585 0 0 1 .316 6.779A49.808 49.808 0 0 0 3.248.566a1.9 1.9 0 0 0-2.7 2.661C9.729 12.551 12.2 24.65 12.7 27.689a23.522 23.522 0 0 0-4.5 14.634 22.644 22.644 0 0 0 9.4 17.391 104.9 104.9 0 0 1 2.7 20.307 1.9 1.9 0 1 0 3.789-.167c-.147-3.341-.4-6.374-.716-9.1l.378.1a1.9 1.9 0 1 0 .9-3.684 27.14 27.14 0 0 1-1.831-.52 97.898 97.898 0 0 0-.779-4.415 22.79 22.79 0 0 0 24.944-4.671 22.673 22.673 0 0 0 6.885-16.341 1.9 1.9 0 0 0-1.9-1.9zm0 0" class="cls-1" data-name="Trazado 33"/>
        <path id="Trazado_34" d="M91.591 169.041a5.727 5.727 0 1 0-5.727-5.727 5.734 5.734 0 0 0 5.727 5.727zm0-7.662a1.935 1.935 0 1 1-1.935 1.935 1.937 1.937 0 0 1 1.935-1.935zm0 0" class="cls-1" data-name="Trazado 34" transform="translate(-64.154 -117.743)"/>
        <path id="Trazado_35" d="M325.95 169.041a5.727 5.727 0 1 0-5.727-5.727 5.734 5.734 0 0 0 5.727 5.727zm0-7.662a1.935 1.935 0 1 1-1.935 1.935 1.937 1.937 0 0 1 1.935-1.935zm0 0" class="cls-1" data-name="Trazado 35" transform="translate(-239.259 -117.743)"/>
        <path id="Trazado_37" d="M291.631.545a1.9 1.9 0 0 0-2.681.021A49.811 49.811 0 0 0 276.767 22.4a12.591 12.591 0 0 1 .315-6.778 1.9 1.9 0 1 0-3.611-1.161 16.088 16.088 0 0 0 2.552 14.907 19.682 19.682 0 0 1 4.193 12.795 19.059 19.059 0 0 1-38.095-.942 1.9 1.9 0 1 0-3.793 0 22.854 22.854 0 0 0 21.361 22.8 23.02 23.02 0 0 0 10.468-1.786 96.81 96.81 0 0 0-.779 4.416c-.605.195-1.218.37-1.831.52a1.9 1.9 0 1 0 .9 3.684c.126-.031.252-.065.378-.1a129.347 129.347 0 0 0-.717 9.1 1.9 1.9 0 1 0 3.79.167 104.9 104.9 0 0 1 2.7-20.307A22.648 22.648 0 0 0 284 42.323a23.528 23.528 0 0 0-4.5-14.634c.493-3.038 2.966-15.138 12.15-24.463a1.9 1.9 0 0 0-.021-2.681zm0 0" class="cls-1" data-name="Trazado 37" transform="translate(-178.07)"/>
    </g>
</svg>
