<svg xmlns="http://www.w3.org/2000/svg" id="_003-shipping" width="57.004" height="62.277" data-name="003-shipping" viewBox="0 0 57.004 62.277">
    <defs>
        <style>
            .cls-1{fill:#0f8bec}
        </style>
    </defs>
    <g id="Grupo_66" data-name="Grupo 66" transform="translate(0 42.219)">
        <g id="Grupo_65" data-name="Grupo 65">
            <path id="Trazado_414" d="M76.711 327.517a3.847 3.847 0 0 0-2.1-2.157 3.777 3.777 0 0 0-2.956 0l-6.844 2.906a3.614 3.614 0 0 0 .035-.381 3.7 3.7 0 0 0-3.695-3.695h-8.188a5.375 5.375 0 0 1-2.386-.563 24.8 24.8 0 0 0-11.029-2.6h-.565a1.056 1.056 0 0 0 0 2.111h.565a22.666 22.666 0 0 1 10.085 2.381 7.481 7.481 0 0 0 3.329.785h8.188a1.583 1.583 0 0 1 .349 3.126c-.138.013-.274.041-.415.041h-12.6a1.056 1.056 0 1 0 0 2.111h12.667c.021 0 .041-.006.063-.006a6.526 6.526 0 0 0 2.436-.515l8.825-3.747a1.673 1.673 0 0 1 1.318 0 1.743 1.743 0 0 1 .95.983 1.805 1.805 0 0 1-.028 1.4 1.74 1.74 0 0 1-.976.935l-16.307 6.218a16.151 16.151 0 0 1-11.877-.129l-8.682-3.609v-12.088a1.056 1.056 0 0 0-1.056-1.056h-8.445a1.056 1.056 0 0 0-1.056 1.056h-5.277a1.056 1.056 0 0 0 0 2.111h5.278v5.278a1.056 1.056 0 0 0 2.111 0v-6.334h6.334v12.667h-6.334v-2.111a1.056 1.056 0 0 0-2.111 0v1.056h-5.278a1.056 1.056 0 1 0 0 2.111h5.278a1.056 1.056 0 0 0 1.056 1.056h8.445a1.056 1.056 0 0 0 1.056-1.056v-.4l7.881 3.272a18.273 18.273 0 0 0 13.433.148l16.304-6.222a3.838 3.838 0 0 0 2.157-2.055 3.906 3.906 0 0 0 .062-3.028z" class="cls-1" data-name="Trazado 414" transform="translate(-19.983 -319.968)"/>
        </g>
    </g>
    <g id="Grupo_68" data-name="Grupo 68" transform="translate(7.389)">
        <g id="Grupo_67" data-name="Grupo 67">
            <path id="Trazado_415" d="M124.495 8.158v-.037a1.041 1.041 0 0 0-.186-.333c-.024-.031-.053-.053-.079-.08a1.078 1.078 0 0 0-.2-.16 1.17 1.17 0 0 0-.12-.061.98.98 0 0 0-.1-.048L100.588.05a1.056 1.056 0 0 0-.64 0L76.725 7.439a1.056 1.056 0 0 0-.742 1v25.336a1.056 1.056 0 0 0 .739 1.006l23.223 7.389a1.057 1.057 0 0 0 .64 0l23.223-7.389a1.056 1.056 0 0 0 .733-1.006V8.441a1.05 1.05 0 0 0-.046-.283zm-24.233-6L120 8.441l-4.083 1.3L96.18 3.458zM92.7 4.567l19.739 6.281-4.082 1.3-19.742-6.282zM122.429 33l-21.112 6.72v-3.834a1.056 1.056 0 0 0-2.111 0v3.834L78.094 33V9.212l7.038-2.239 19.739 6.282-4.61 1.466-17.628-5.607a1.056 1.056 0 0 0-.64 2.012L99.206 16.6v15.064a1.056 1.056 0 1 0 2.111 0V16.6l5.982-1.9v7a1.056 1.056 0 0 0 1.056 1.056 1.079 1.079 0 0 0 .317-.05l2.463-.785a1.056 1.056 0 1 0-.64-2.012l-1.087.346v-6.224l5.452-1.731v6.228l-1.2.381a1.056 1.056 0 0 0 .317 2.062 1.027 1.027 0 0 0 .317-.05l1.936-.615a1.056 1.056 0 0 0 .739-1.006v-7.68l5.46-1.735z" class="cls-1" data-name="Trazado 415" transform="translate(-75.983)"/>
        </g>
    </g>
    <g id="Grupo_70" data-name="Grupo 70" transform="translate(11.611 26.385)">
        <g id="Grupo_69" data-name="Grupo 69">
            <path id="Trazado_416" d="M109.039 199.968a1.056 1.056 0 0 0-1.056 1.056v3.167a1.056 1.056 0 1 0 2.111 0v-3.167a1.056 1.056 0 0 0-1.055-1.056z" class="cls-1" data-name="Trazado 416" transform="translate(-107.983 -199.968)"/>
        </g>
    </g>
    <g id="Grupo_72" data-name="Grupo 72" transform="translate(15.834 27.441)">
        <g id="Grupo_71" data-name="Grupo 71">
            <path id="Trazado_417" d="M141.039 207.968a1.056 1.056 0 0 0-1.056 1.056v3.167a1.056 1.056 0 1 0 2.111 0v-3.167a1.056 1.056 0 0 0-1.055-1.056z" class="cls-1" data-name="Trazado 417" transform="translate(-139.983 -207.968)"/>
        </g>
    </g>
</svg>
