<svg xmlns="http://www.w3.org/2000/svg" id="facial" width="57.9" height="96.747" viewBox="0 0 57.9 96.747">
    <defs>
        <style>
            .cls-1{fill:#0f8bec}
        </style>
    </defs>
    <path id="Trazado_44" d="M51.493 82.736L38.7 77.287a1.955 1.955 0 0 1-1.19-1.8V73.6a27.754 27.754 0 0 0 12.27-11.988 36.752 36.752 0 0 0 3.657-10.676 4.591 4.591 0 0 0 1.033-.736c4.045-3.653 3.432-15.089 3.347-16.4-.514-7-2.763-10.657-5.142-14.53-.261-.425-.524-.853-.788-1.29a.434.434 0 0 1-.049-.334l.293-1.095A3.274 3.274 0 0 0 51.753 14a35.466 35.466 0 0 0-9.336-10.095A20.1 20.1 0 0 0 24.975.795a15.355 15.355 0 0 0-8.644 6.112 1.415 1.415 0 1 0 2.346 1.581 11.766 11.766 0 0 1 4.1-3.727c1.905 2.868 5.182 4.472 8.413 5.867 2.794 1.206 6.271 2.707 7.76 5.508a1.415 1.415 0 0 0 2.5-1.328c-1.955-3.677-6.106-5.469-9.136-6.777-2.75-1.188-5.336-2.434-6.871-4.415.114-.036.227-.075.343-.109a17.257 17.257 0 0 1 14.967 2.687 32.653 32.653 0 0 1 8.595 9.292.433.433 0 0 1 .05.34l-.292 1.095a3.28 3.28 0 0 0 .358 2.526c.268.444.535.88.8 1.312 2.29 3.726 4.267 6.944 4.73 13.243.273 4.233-.1 11.6-2.228 13.909-.774-3.218-4.325-12.579-20-18.416-.166-.061-16.638-6.3-16-15.567a1.415 1.415 0 0 0-2.823-.2 10.487 10.487 0 0 0 .018 1.656 17.366 17.366 0 0 0-4.837 2.276C6.5 19.461 5.791 20.99 5.686 23.9v.074a25.92 25.92 0 0 0-.012.9 3.118 3.118 0 0 0-3.334 1.355c-.72.971-1.977 3.523-2.3 9.715a29.123 29.123 0 0 0 .56 7.525A16.2 16.2 0 0 0 3.5 49.7a2.455 2.455 0 0 0 1.011.815 36.962 36.962 0 0 0 3.73 11.097A27.747 27.747 0 0 0 20.5 73.593v1.894a1.954 1.954 0 0 1-1.19 1.8L6.523 82.736a8.5 8.5 0 0 0-5.178 7.836v4.759a1.415 1.415 0 0 0 1.415 1.415h52.5a1.415 1.415 0 0 0 1.415-1.415v-4.759a8.505 8.505 0 0 0-5.179-7.836zM10.734 60.275a34.216 34.216 0 0 1-3.458-10.354 2.508 2.508 0 0 0 .563-1.035c1.053-3.891 2.193-7.076 4.328-9.971a1.415 1.415 0 0 0-2.278-1.679 29.844 29.844 0 0 0-4.567 10.132 12.667 12.667 0 0 1-1.954-4.486 26.285 26.285 0 0 1-.5-6.8c.2-3.8.88-7.012 1.742-8.173.254-.342.339-.314.437-.28a2.942 2.942 0 0 0 .723.146 30.676 30.676 0 0 0 .636 5.195 1.415 1.415 0 0 0 2.75-.668 44.883 44.883 0 0 1-.641-8.34v-.022c.074-2.129.525-2.787 2.212-3.941a14.458 14.458 0 0 1 3.865-1.84c1.473 4.04 5.156 7.3 8.74 9.648-.958.483-1.913.875-2.65 1.177l-.129.053a25.968 25.968 0 0 0-5.734 3.248 1.415 1.415 0 1 0 1.7 2.262 23.145 23.145 0 0 1 5.11-2.893l.128-.053a29.446 29.446 0 0 0 4.376-2.11 45.386 45.386 0 0 0 5.65 2.653c4.921 1.832 11.633 5.23 15.663 11.012a15 15 0 0 1 2.71 6.144 1.477 1.477 0 0 0 .027.17 2.52 2.52 0 0 0 .459 1.02 33.9 33.9 0 0 1-3.355 9.784 25.123 25.123 0 0 1-13.178 11.748 13.7 13.7 0 0 1-10.2 0 25.125 25.125 0 0 1-13.175-11.747zm43.107 33.641H4.175v-3.344a5.679 5.679 0 0 1 3.457-5.233l12.788-5.448a4.781 4.781 0 0 0 2.91-4.4v-.661a16.442 16.442 0 0 0 11.355 0v.66a4.781 4.781 0 0 0 2.91 4.4l12.788 5.449a5.679 5.679 0 0 1 3.458 5.233zm0 0" class="cls-1" data-name="Trazado 44" transform="translate(0 .001)"/>
    <path id="Trazado_45" d="M95.9 258.27a4.307 4.307 0 0 0 8.615 0 1.415 1.415 0 0 0-2.83 0 1.477 1.477 0 1 1-2.955 0 1.415 1.415 0 0 0-2.83 0zm0 0" class="cls-1" data-name="Trazado 45" transform="translate(-77.777 -208.32)"/>
    <path id="Trazado_46" d="M169.877 262.577a4.312 4.312 0 0 0 4.307-4.307 1.415 1.415 0 0 0-2.829 0 1.478 1.478 0 0 1-2.955 0 1.415 1.415 0 0 0-2.829 0 4.311 4.311 0 0 0 4.307 4.307zm0 0" class="cls-1" data-name="Trazado 46" transform="translate(-134.284 -208.32)"/>
    <path id="Trazado_47" d="M111.594 218.6a12.458 12.458 0 0 1 1.889 1.34 1.415 1.415 0 1 0 1.814-2.172 15 15 0 0 0-2.321-1.638 1.415 1.415 0 0 0-1.381 2.469zm0 0" class="cls-1" data-name="Trazado 47" transform="translate(-89.919 -175.146)"/>
    <path id="Trazado_48" d="M53.359 236.257a1.415 1.415 0 0 0 1.413-1.359 3.447 3.447 0 0 1 .708-1.848 1.415 1.415 0 1 0-2.3-1.642 6.2 6.2 0 0 0-1.231 3.379 1.414 1.414 0 0 0 1.357 1.47zm0 0" class="cls-1" data-name="Trazado 48" transform="translate(-42.128 -187.199)"/>
    <path id="Trazado_49" d="M80.132 212.853a1.414 1.414 0 0 0-1.623-1.17 10.908 10.908 0 0 0-3.084 1.019 1.415 1.415 0 1 0 1.267 2.53 8.061 8.061 0 0 1 2.27-.756 1.415 1.415 0 0 0 1.17-1.623zm0 0" class="cls-1" data-name="Trazado 49" transform="translate(-60.538 -171.668)"/>
    <path id="Trazado_50" d="M204.455 214.475a8.062 8.062 0 0 1 2.27.756 1.415 1.415 0 1 0 1.267-2.53 10.912 10.912 0 0 0-3.085-1.019 1.415 1.415 0 0 0-.453 2.793zm0 0" class="cls-1" data-name="Trazado 50" transform="translate(-164.857 -171.668)"/>
    <path id="Trazado_51" d="M235.98 234.9a1.415 1.415 0 0 0 1.414 1.359h.056a1.415 1.415 0 0 0 1.358-1.47 6.21 6.21 0 0 0-1.231-3.379 1.415 1.415 0 0 0-2.3 1.642 3.446 3.446 0 0 1 .703 1.848zm0 0" class="cls-1" data-name="Trazado 51" transform="translate(-190.602 -187.2)"/>
    <path id="Trazado_52" d="M171.486 220.271a1.409 1.409 0 0 0 .906-.328 12.356 12.356 0 0 1 1.889-1.34 1.415 1.415 0 1 0-1.381-2.47 15.152 15.152 0 0 0-2.321 1.638 1.415 1.415 0 0 0 .908 2.5zm0 0" class="cls-1" data-name="Trazado 52" transform="translate(-137.934 -175.146)"/>
    <path id="Trazado_53" d="M111.987 349.347a1.415 1.415 0 0 0-2.757.638 9.476 9.476 0 0 1 .193 1.16 1.415 1.415 0 0 0 2.814-.289 12.249 12.249 0 0 0-.25-1.509zm0 0" class="cls-1" data-name="Trazado 53" transform="translate(-88.56 -282.445)"/>
    <path id="Trazado_54" d="M93.973 319.24a14.37 14.37 0 0 0-2.124-2.3 1.415 1.415 0 0 0-1.866 2.127 11.521 11.521 0 0 1 1.707 1.847 1.415 1.415 0 1 0 2.284-1.67zm0 0" class="cls-1" data-name="Trazado 54" transform="translate(-72.589 -256.762)"/>
    <path id="Trazado_55" d="M61.17 299.476a17.745 17.745 0 0 0-2.88-1.164 1.415 1.415 0 0 0-.765 2.724 15.407 15.407 0 0 1 2.379.971 1.415 1.415 0 0 0 1.267-2.531zm0 0" class="cls-1" data-name="Trazado 55" transform="translate(-45.82 -241.901)"/>
    <path id="Trazado_56" d="M183.646 348.287a1.415 1.415 0 0 0-1.7 1.059 12.249 12.249 0 0 0-.25 1.509 1.414 1.414 0 0 0 1.263 1.552 1.387 1.387 0 0 0 .146.008 1.415 1.415 0 0 0 1.405-1.27 9.482 9.482 0 0 1 .193-1.16 1.415 1.415 0 0 0-1.057-1.698zm0 0" class="cls-1" data-name="Trazado 56" transform="translate(-147.358 -282.445)"/>
    <path id="Trazado_57" d="M225.319 298.312a17.753 17.753 0 0 0-2.879 1.164 1.415 1.415 0 1 0 1.266 2.531 15.353 15.353 0 0 1 2.38-.971 1.415 1.415 0 0 0-.766-2.724zm0 0" class="cls-1" data-name="Trazado 57" transform="translate(-179.773 -241.9)"/>
    <path id="Trazado_58" d="M194.815 316.936a14.329 14.329 0 0 0-2.124 2.3 1.415 1.415 0 1 0 2.284 1.671 11.49 11.49 0 0 1 1.707-1.848 1.415 1.415 0 1 0-1.866-2.126zm0 0" class="cls-1" data-name="Trazado 58" transform="translate(-156.059 -256.762)"/>
</svg>
