<svg xmlns="http://www.w3.org/2000/svg" width="210.72" height="65.373" viewBox="0 0 210.72 65.373">
  <g id="logo_caliope" transform="translate(-262.38 -262.611)">
    <g id="Grupo_1" data-name="Grupo 1" transform="translate(445.445 263.611)">
      <path id="Trazado_1" data-name="Trazado 1" d="M535.939,263.827a12.666,12.666,0,0,1-12.666,12.666h-.02c-.02,0-.042,0-.062,0,0-.069,0-.137,0-.206,0-.093,0-.185,0-.277a12.667,12.667,0,0,1,12.663-12.4c.028,0,.055,0,.083,0C535.939,263.684,535.939,263.756,535.939,263.827Z" transform="translate(-508.736 -264.611)" fill="#0f8bec"/>
      <path id="Trazado_2" data-name="Trazado 2" d="M517.75,276.329c0,.071,0,.141,0,.212a12.5,12.5,0,0,1-12.418-12.5c0-.068,0-.136,0-.2a12.5,12.5,0,0,1,12.415,12.227Q517.75,276.2,517.75,276.329Z" transform="translate(-505.334 -264.667)" fill="#fff"/>
      <path id="Trazado_3" data-name="Trazado 3" d="M536.391,294.945c-.022,0-.043,0-.066,0a13.137,13.137,0,0,1-13.133-12.852c0-.02,0-.041,0-.062h.085A13.133,13.133,0,0,1,536.391,294.945Z" transform="translate(-508.736 -268.152)" fill="#5cd231"/>
    </g>
    <g id="Grupo_2" data-name="Grupo 2" transform="translate(262.38 263.926)">
      <path id="Trazado_4" data-name="Trazado 4" d="M282.322,271.656a17.207,17.207,0,0,1,6.18,1.016,22.919,22.919,0,0,1,5.917,3.688c1.139.879,2.1.951,2.823.062a2.164,2.164,0,0,0,.483-1.4,2.749,2.749,0,0,0-.97-2.045,17.7,17.7,0,0,0-6.421-4.042,22.736,22.736,0,0,0-7.95-1.4,20.4,20.4,0,0,0-10.651,2.722,17.768,17.768,0,0,0-6.954,7.8,30.992,30.992,0,0,0,0,23.9,17.744,17.744,0,0,0,6.955,7.828,20.4,20.4,0,0,0,10.651,2.722,22.737,22.737,0,0,0,7.95-1.4,17.686,17.686,0,0,0,6.411-4.034,2.758,2.758,0,0,0,.98-2.055,2.169,2.169,0,0,0-.484-1.4,1.507,1.507,0,0,0-1.181-.629,3.24,3.24,0,0,0-1.649.7,22.789,22.789,0,0,1-5.907,3.682,17.2,17.2,0,0,1-6.181,1.017c-4.809,0-8.58-1.6-11.21-4.77-2.649-3.183-3.992-7.766-3.992-13.62,0-5.811,1.343-10.373,3.992-13.559C273.743,273.261,277.514,271.656,282.322,271.656Z" transform="translate(-262.38 -264.892)" fill="#fff"/>
      <path id="Trazado_5" data-name="Trazado 5" d="M329.8,285.11a21.419,21.419,0,0,0-5.306.686,19.669,19.669,0,0,0-4.885,1.943c-1.545.927-2.329,1.923-2.329,2.961a2.044,2.044,0,0,0,.491,1.381c.631.729,1.572.856,2.826,0l.928-.63a16.635,16.635,0,0,1,8.459-2.341c2.248,0,3.906.587,4.93,1.744s1.562,3.078,1.562,5.669v1.893h-.912a60.39,60.39,0,0,0-11.174.8c-2.725.545-4.712,1.469-5.906,2.75a7.653,7.653,0,0,0-1.818,5.409,8.567,8.567,0,0,0,1.442,4.807,9.7,9.7,0,0,0,3.922,3.382,12.309,12.309,0,0,0,5.439,1.2,11,11,0,0,0,5.839-1.558,9.837,9.837,0,0,0,3.168-3.116v2.213a2.3,2.3,0,0,0,.592,1.637,2.379,2.379,0,0,0,3.247,0,2.3,2.3,0,0,0,.595-1.638v-17.48c0-3.884-.933-6.839-2.771-8.784S333.491,285.11,329.8,285.11Zm6.677,18.469a9.288,9.288,0,0,1-2.443,6.61,8.253,8.253,0,0,1-6.258,2.581,6.842,6.842,0,0,1-4.6-1.6,4.979,4.979,0,0,1-1.831-3.977,4.162,4.162,0,0,1,1.168-3.19,8.172,8.172,0,0,1,4.218-1.591,62.361,62.361,0,0,1,8.957-.486h.789Z" transform="translate(-275.762 -269.226)" fill="#fff"/>
      <path id="Trazado_6" data-name="Trazado 6" d="M363.062,267.773a2.3,2.3,0,0,0-1.637.593,2.212,2.212,0,0,0-.64,1.685V310.1a2.209,2.209,0,0,0,.64,1.685,2.3,2.3,0,0,0,1.637.593,2.117,2.117,0,0,0,2.217-2.278V270.051a2.117,2.117,0,0,0-2.217-2.278Z" transform="translate(-286.637 -264.952)" fill="#fff"/>
      <path id="Trazado_7" data-name="Trazado 7" d="M381.391,277.724a1.543,1.543,0,0,0,1.12-.474l9.013-8.706a3.179,3.179,0,0,0,1.16-2.3,2.109,2.109,0,0,0-.671-1.594,2.272,2.272,0,0,0-1.607-.623,3.015,3.015,0,0,0-2.444,1.373l-7.675,9.886a1.768,1.768,0,0,0-.377,1.016,1.342,1.342,0,0,0,.46,1.014A1.477,1.477,0,0,0,381.391,277.724Z" transform="translate(-291.351 -264.029)" fill="#fff"/>
      <path id="Trazado_8" data-name="Trazado 8" d="M381.131,285.273a2.3,2.3,0,0,0-1.638.593,2.215,2.215,0,0,0-.64,1.685v26.863a2.212,2.212,0,0,0,.64,1.686,2.309,2.309,0,0,0,1.638.592,2.194,2.194,0,0,0,1.616-.6,2.275,2.275,0,0,0,.6-1.677V287.551a2.282,2.282,0,0,0-.6-1.677A2.2,2.2,0,0,0,381.131,285.273Z" transform="translate(-291.091 -269.266)" fill="#fff"/>
      <path id="Trazado_9" data-name="Trazado 9" d="M415.884,287.066a14.926,14.926,0,0,0-14.775,0,13.192,13.192,0,0,0-4.956,5.553,20.606,20.606,0,0,0,0,16.646,13.189,13.189,0,0,0,4.956,5.553,14.926,14.926,0,0,0,14.775,0,12.935,12.935,0,0,0,4.958-5.556,20.948,20.948,0,0,0,0-16.641A12.943,12.943,0,0,0,415.884,287.066Zm-.426,22.652a8.6,8.6,0,0,1-7.007,2.991,8.421,8.421,0,0,1-6.944-2.987c-1.613-2.006-2.431-4.96-2.431-8.78,0-3.737.839-6.681,2.493-8.749a9.333,9.333,0,0,1,13.856,0c1.673,2.068,2.522,5.012,2.522,8.747C417.948,304.76,417.11,307.713,415.458,309.718Z" transform="translate(-294.922 -269.226)" fill="#fff"/>
      <path id="Trazado_10" data-name="Trazado 10" d="M462.775,287.1a12.957,12.957,0,0,0-7.134-1.992,12.46,12.46,0,0,0-6.448,1.616,9.973,9.973,0,0,0-3.419,3.378v-2.593a2.309,2.309,0,0,0-.593-1.639,2.137,2.137,0,0,0-1.623-.639,2.167,2.167,0,0,0-2.279,2.278v37.9a2.167,2.167,0,0,0,2.279,2.278,2.135,2.135,0,0,0,1.624-.64,2.306,2.306,0,0,0,.592-1.637V311.78a9.952,9.952,0,0,0,3.419,3.377,12.457,12.457,0,0,0,6.448,1.617,12.709,12.709,0,0,0,11.931-7.482,18.96,18.96,0,0,0,1.693-8.228,19.534,19.534,0,0,0-1.692-8.347A13.172,13.172,0,0,0,462.775,287.1Zm-.648,22.585a8.649,8.649,0,0,1-7.038,3.022,8.313,8.313,0,0,1-6.881-3.016c-1.615-2.028-2.433-4.972-2.433-8.75s.829-6.732,2.463-8.78a8.368,8.368,0,0,1,6.912-3.048,8.47,8.47,0,0,1,6.974,3.11c1.675,2.089,2.524,5.064,2.524,8.841C464.647,304.759,463.8,307.661,462.127,309.687Z" transform="translate(-306.479 -269.226)" fill="#fff"/>
      <path id="Trazado_11" data-name="Trazado 11" d="M511.724,309.8a1.588,1.588,0,0,0-1.236-.589,4.422,4.422,0,0,0-2.087.97,29.189,29.189,0,0,1-3.755,1.847,11.735,11.735,0,0,1-4.277.678c-3.228,0-5.756-.95-7.513-2.824-1.7-1.817-2.655-4.492-2.826-7.952h20.03a2.465,2.465,0,0,0,1.868-.639,2.661,2.661,0,0,0,.594-1.884c0-4.409-1.157-7.93-3.439-10.464a12.054,12.054,0,0,0-9.387-3.835,14.074,14.074,0,0,0-7.464,1.987,13.424,13.424,0,0,0-5.048,5.613A18.526,18.526,0,0,0,485.395,301c0,4.862,1.356,8.747,4.03,11.544s6.38,4.226,11,4.226a18.347,18.347,0,0,0,9.52-2.694c1.5-.928,2.263-1.922,2.263-2.957a1.967,1.967,0,0,0-.49-1.32ZM493.1,291.512a8.73,8.73,0,0,1,6.6-2.581,7.927,7.927,0,0,1,6.278,2.539,11.057,11.057,0,0,1,2.347,6.949H490.18A11.829,11.829,0,0,1,493.1,291.512Z" transform="translate(-317.354 -269.226)" fill="#fff"/>
    </g>
    <g id="Grupo_3" data-name="Grupo 3" transform="translate(265.009 317.668)">
      <path id="Trazado_12" data-name="Trazado 12" d="M269.279,335.353h-2.736a.668.668,0,0,0-.492.182.652.652,0,0,0-.182.481v6.9a.675.675,0,0,0,.187.5.662.662,0,0,0,.487.187.671.671,0,0,0,.5-.188.687.687,0,0,0,.179-.5v-2.573h2.052a2.945,2.945,0,0,0,2.038-.66,2.671,2.671,0,0,0,0-3.682A2.979,2.979,0,0,0,269.279,335.353Zm1.461,2.49c0,.922-.519,1.37-1.586,1.37h-1.927v-2.729h1.927C270.22,336.484,270.74,336.929,270.74,337.843Z" transform="translate(-265.869 -335.353)" fill="#fff"/>
      <path id="Trazado_13" data-name="Trazado 13" d="M279.135,338.807a3.2,3.2,0,0,0-2.964,0,2.466,2.466,0,0,0-.992,1.044,3.718,3.718,0,0,0,0,3.129,2.478,2.478,0,0,0,.991,1.044,3.2,3.2,0,0,0,2.965,0,2.487,2.487,0,0,0,.992-1.044,3.725,3.725,0,0,0,0-3.129A2.479,2.479,0,0,0,279.135,338.807Zm-.01,2.613a2.207,2.207,0,0,1-.383,1.405h0a1.511,1.511,0,0,1-2.18,0,2.746,2.746,0,0,1,.006-2.8,1.485,1.485,0,0,1,2.169,0A2.191,2.191,0,0,1,279.125,341.42Z" transform="translate(-268.079 -336.115)" fill="#fff"/>
      <path id="Trazado_14" data-name="Trazado 14" d="M286.747,338.472l-.16.011a2.316,2.316,0,0,0-1.017.32,1.679,1.679,0,0,0-.515.484V339.1a.6.6,0,0,0-.184-.461.635.635,0,0,0-.445-.167.707.707,0,0,0-.476.164.6.6,0,0,0-.2.475v4.62a.591.591,0,0,0,.2.481.723.723,0,0,0,.475.158.7.7,0,0,0,.47-.159.6.6,0,0,0,.191-.48v-2.6a1.533,1.533,0,0,1,.326-.985,1.385,1.385,0,0,1,1-.465l.338-.034a.75.75,0,0,0,.492-.175.6.6,0,0,0,.152-.442.557.557,0,0,0-.154-.423A.622.622,0,0,0,286.747,338.472Z" transform="translate(-270.277 -336.121)" fill="#fff"/>
      <path id="Trazado_15" data-name="Trazado 15" d="M293.649,338.466a.656.656,0,0,0-.482.18.639.639,0,0,0-.181.47v.131a1.871,1.871,0,0,0-.585-.519,2.28,2.28,0,0,0-1.148-.285,2.409,2.409,0,0,0-1.328.378,2.53,2.53,0,0,0-.908,1.06,3.622,3.622,0,0,0-.321,1.562,3.555,3.555,0,0,0,.316,1.538,2.415,2.415,0,0,0,.9,1.039,2.488,2.488,0,0,0,1.339.366,2.331,2.331,0,0,0,1.142-.273,1.818,1.818,0,0,0,.581-.5v2.181a.582.582,0,0,0,.184.449.766.766,0,0,0,.962-.005.608.608,0,0,0,.189-.467v-6.652a.638.638,0,0,0-.181-.47A.655.655,0,0,0,293.649,338.466Zm-.662,2.954a2.219,2.219,0,0,1-.383,1.395h0a1.281,1.281,0,0,1-1.078.475,1.317,1.317,0,0,1-1.09-.471,2.129,2.129,0,0,1-.393-1.376,2.2,2.2,0,0,1,.4-1.4,1.294,1.294,0,0,1,1.084-.492,1.281,1.281,0,0,1,1.078.475A2.222,2.222,0,0,1,292.986,341.42Z" transform="translate(-271.496 -336.115)" fill="#fff"/>
      <path id="Trazado_16" data-name="Trazado 16" d="M302.4,338.473a.672.672,0,0,0-.485.179.625.625,0,0,0-.188.471v2.667a1.525,1.525,0,0,1-.377,1.083,1.311,1.311,0,0,1-1,.4.96.96,0,0,1-.769-.286,1.412,1.412,0,0,1-.25-.926v-2.94a.636.636,0,0,0-.182-.477.667.667,0,0,0-.479-.173.681.681,0,0,0-.491.173.634.634,0,0,0-.182.477v2.951c0,1.539.711,2.319,2.114,2.319a2.22,2.22,0,0,0,1.073-.261,1.844,1.844,0,0,0,.582-.494v.116a.592.592,0,0,0,.176.448.623.623,0,0,0,.451.169.687.687,0,0,0,.484-.173.594.594,0,0,0,.189-.455v-4.62a.628.628,0,0,0-.182-.476A.662.662,0,0,0,302.4,338.473Z" transform="translate(-273.787 -336.122)" fill="#fff"/>
      <path id="Trazado_17" data-name="Trazado 17" d="M311.422,341.182a2.87,2.87,0,0,0-.671-1.993,2.353,2.353,0,0,0-1.83-.746,2.737,2.737,0,0,0-1.427.376,2.563,2.563,0,0,0-.979,1.06,3.393,3.393,0,0,0-.344,1.552,2.942,2.942,0,0,0,.787,2.161,2.9,2.9,0,0,0,2.144.794,3.621,3.621,0,0,0,.926-.128,3.692,3.692,0,0,0,.891-.36.742.742,0,0,0,.457-.639.578.578,0,0,0-.123-.377.42.42,0,0,0-.335-.16.706.706,0,0,0-.3.084c-.108.052-.174.087-.191.1a5.137,5.137,0,0,1-.634.29,2.009,2.009,0,0,1-.694.108c-.973,0-1.493-.515-1.59-1.571h3.406C311.245,341.73,311.422,341.535,311.422,341.182Zm-1.182-.3h-2.722a1.805,1.805,0,0,1,.439-1.022,1.3,1.3,0,0,1,.988-.39,1.16,1.16,0,0,1,.934.381A1.746,1.746,0,0,1,310.241,340.884Z" transform="translate(-275.804 -336.115)" fill="#fff"/>
      <path id="Trazado_18" data-name="Trazado 18" d="M323.37,341.182a2.874,2.874,0,0,0-.671-1.993,2.354,2.354,0,0,0-1.83-.746,2.741,2.741,0,0,0-1.427.376,2.573,2.573,0,0,0-.979,1.06,3.4,3.4,0,0,0-.344,1.552,2.949,2.949,0,0,0,.787,2.162,2.9,2.9,0,0,0,2.145.793,3.625,3.625,0,0,0,.926-.128,3.688,3.688,0,0,0,.89-.36.742.742,0,0,0,.457-.639.582.582,0,0,0-.123-.377c-.14-.171-.326-.224-.631-.076-.108.052-.174.087-.191.1a5.154,5.154,0,0,1-.635.29,2,2,0,0,1-.693.108c-.973,0-1.493-.515-1.59-1.571h3.406C323.192,341.73,323.37,341.535,323.37,341.182Zm-3.9-.3a1.805,1.805,0,0,1,.439-1.022,1.284,1.284,0,0,1,.988-.39,1.157,1.157,0,0,1,.933.381,1.746,1.746,0,0,1,.363,1.031Z" transform="translate(-278.749 -336.115)" fill="#fff"/>
      <path id="Trazado_19" data-name="Trazado 19" d="M329.505,338.472l-.161.011a2.313,2.313,0,0,0-1.016.32,1.671,1.671,0,0,0-.515.485V339.1a.6.6,0,0,0-.185-.461.632.632,0,0,0-.444-.167.707.707,0,0,0-.476.164.6.6,0,0,0-.2.475v4.62a.591.591,0,0,0,.2.481.723.723,0,0,0,.475.158.7.7,0,0,0,.47-.159.6.6,0,0,0,.191-.48v-2.6a1.532,1.532,0,0,1,.326-.985,1.383,1.383,0,0,1,1-.465l.338-.034a.751.751,0,0,0,.492-.175.6.6,0,0,0,.152-.442.556.556,0,0,0-.154-.423A.632.632,0,0,0,329.505,338.472Z" transform="translate(-280.817 -336.121)" fill="#fff"/>
      <path id="Trazado_20" data-name="Trazado 20" d="M336.7,341.182a2.874,2.874,0,0,0-.671-1.993,2.354,2.354,0,0,0-1.83-.746,2.741,2.741,0,0,0-1.427.376,2.566,2.566,0,0,0-.978,1.06,3.389,3.389,0,0,0-.345,1.552,2.949,2.949,0,0,0,.787,2.162,2.9,2.9,0,0,0,2.145.793,3.625,3.625,0,0,0,.926-.128,3.687,3.687,0,0,0,.89-.36.742.742,0,0,0,.457-.639.582.582,0,0,0-.123-.377c-.14-.171-.326-.224-.631-.076-.108.052-.174.087-.191.1a5.148,5.148,0,0,1-.635.29,2,2,0,0,1-.693.108c-.973,0-1.493-.515-1.59-1.571H336.2C336.525,341.73,336.7,341.535,336.7,341.182Zm-3.9-.3a1.806,1.806,0,0,1,.439-1.022,1.3,1.3,0,0,1,.988-.39,1.157,1.157,0,0,1,.933.381,1.747,1.747,0,0,1,.363,1.031Z" transform="translate(-282.035 -336.115)" fill="#fff"/>
      <path id="Trazado_21" data-name="Trazado 21" d="M343.262,341.3h0a5.622,5.622,0,0,0-1.212-.37,3.212,3.212,0,0,1-.973-.322.467.467,0,0,1-.225-.415.553.553,0,0,1,.249-.479,1.219,1.219,0,0,1,.712-.187,1.8,1.8,0,0,1,.631.1,3.774,3.774,0,0,1,.558.276,2.974,2.974,0,0,0,.283.153.465.465,0,0,0,.57-.1.545.545,0,0,0,.131-.368.8.8,0,0,0-.415-.657,2.611,2.611,0,0,0-.79-.359,3.411,3.411,0,0,0-.911-.122,2.933,2.933,0,0,0-1.172.223,1.933,1.933,0,0,0-.822.638,1.553,1.553,0,0,0-.3.936,1.344,1.344,0,0,0,.469,1.077,3.479,3.479,0,0,0,1.477.6,6.936,6.936,0,0,1,.862.229.939.939,0,0,1,.376.218.441.441,0,0,1,.1.3.517.517,0,0,1-.263.465,1.513,1.513,0,0,1-.8.179,2.406,2.406,0,0,1-.781-.109,4.571,4.571,0,0,1-.648-.288,1.161,1.161,0,0,0-.512-.194.416.416,0,0,0-.335.16.566.566,0,0,0-.123.366.662.662,0,0,0,.1.356.943.943,0,0,0,.318.291,3.543,3.543,0,0,0,1.947.491,2.863,2.863,0,0,0,1.707-.466,1.492,1.492,0,0,0,.658-1.262,1.525,1.525,0,0,0-.2-.816A1.5,1.5,0,0,0,343.262,341.3Z" transform="translate(-283.993 -336.115)" fill="#fff"/>
      <path id="Trazado_22" data-name="Trazado 22" d="M357.534,338.443a2.232,2.232,0,0,0-1.16.3,1.986,1.986,0,0,0-.677.647,1.584,1.584,0,0,0-.582-.675,2.04,2.04,0,0,0-1.1-.275,2.144,2.144,0,0,0-1.068.261,1.785,1.785,0,0,0-.552.484v-.095a.6.6,0,0,0-.185-.461.647.647,0,0,0-.456-.166.7.7,0,0,0-.47.17.593.593,0,0,0-.2.469v4.62a.6.6,0,0,0,.2.474.708.708,0,0,0,.475.165.684.684,0,0,0,.472-.167.6.6,0,0,0,.191-.472v-2.668a1.633,1.633,0,0,1,.347-1.1,1.146,1.146,0,0,1,.922-.393.849.849,0,0,1,.71.277,1.537,1.537,0,0,1,.23.946v2.94a.6.6,0,0,0,.189.472.687.687,0,0,0,.472.167.7.7,0,0,0,.483-.167.6.6,0,0,0,.19-.472v-2.668a1.65,1.65,0,0,1,.341-1.1,1.132,1.132,0,0,1,.915-.393.851.851,0,0,1,.711.277,1.536,1.536,0,0,1,.229.946v2.94a.6.6,0,0,0,.191.472.684.684,0,0,0,.471.167.7.7,0,0,0,.483-.167.6.6,0,0,0,.191-.472v-2.952C359.49,339.227,358.833,338.443,357.534,338.443Z" transform="translate(-286.874 -336.115)" fill="#fff"/>
      <path id="Trazado_23" data-name="Trazado 23" d="M366.429,338.443a4.472,4.472,0,0,0-1.056.133,3.987,3.987,0,0,0-.955.356,1.109,1.109,0,0,0-.341.281.59.59,0,0,0-.114.356.565.565,0,0,0,.13.38.443.443,0,0,0,.35.158,1.123,1.123,0,0,0,.471-.179,5.666,5.666,0,0,1,.76-.29,2.6,2.6,0,0,1,.722-.1,1.014,1.014,0,0,1,.772.253,1.255,1.255,0,0,1,.237.856v.235h-.168a10.5,10.5,0,0,0-2,.149,1.96,1.96,0,0,0-1.084.523,1.462,1.462,0,0,0-.337,1.011,1.7,1.7,0,0,0,.271.937,1.813,1.813,0,0,0,.747.652,2.342,2.342,0,0,0,1.041.231,2,2,0,0,0,1.042-.269,1.662,1.662,0,0,0,.5-.46v.068a.6.6,0,0,0,.639.639.657.657,0,0,0,.474-.169.627.627,0,0,0,.176-.47v-2.94a2.445,2.445,0,0,0-.566-1.757A2.288,2.288,0,0,0,366.429,338.443Zm.973,3.276v.2a1.457,1.457,0,0,1-.373,1.032,1.236,1.236,0,0,1-.952.4.986.986,0,0,1-.676-.237.755.755,0,0,1-.263-.6.6.6,0,0,1,.173-.47,1.257,1.257,0,0,1,.634-.243,8.9,8.9,0,0,1,1.347-.078Z" transform="translate(-290.013 -336.115)" fill="#fff"/>
      <path id="Trazado_24" data-name="Trazado 24" d="M376.707,338.466a.665.665,0,0,0-.48.174.619.619,0,0,0-.182.465v.142a1.874,1.874,0,0,0-.592-.52,2.338,2.338,0,0,0-1.164-.284,2.439,2.439,0,0,0-2.253,1.368,3.558,3.558,0,0,0-.005,2.969,2.392,2.392,0,0,0,.916,1,2.565,2.565,0,0,0,1.343.354,2.354,2.354,0,0,0,1.181-.29,1.852,1.852,0,0,0,.586-.518v.533a1.3,1.3,0,0,1-1.472,1.484,2.8,2.8,0,0,1-.812-.1,5.62,5.62,0,0,1-.744-.294,1.228,1.228,0,0,0-.509-.182.43.43,0,0,0-.338.158.56.56,0,0,0-.132.38.766.766,0,0,0,.468.65,4.187,4.187,0,0,0,2.09.478,2.873,2.873,0,0,0,2.057-.674,2.636,2.636,0,0,0,.7-1.986v-4.654a.638.638,0,0,0-.181-.47A.653.653,0,0,0,376.707,338.466Zm-.662,2.829a1.926,1.926,0,0,1-.4,1.29,1.361,1.361,0,0,1-1.087.455,1.392,1.392,0,0,1-1.1-.457,1.887,1.887,0,0,1-.408-1.289,1.909,1.909,0,0,1,.4-1.289,1.377,1.377,0,0,1,1.1-.455,1.335,1.335,0,0,1,1.092.46A1.945,1.945,0,0,1,376.045,341.3Z" transform="translate(-291.959 -336.115)" fill="#fff"/>
      <path id="Trazado_25" data-name="Trazado 25" d="M385.923,341.182a2.87,2.87,0,0,0-.671-1.993,2.353,2.353,0,0,0-1.83-.746,2.737,2.737,0,0,0-1.427.376,2.562,2.562,0,0,0-.979,1.06,3.385,3.385,0,0,0-.344,1.552,2.942,2.942,0,0,0,.787,2.161,2.9,2.9,0,0,0,2.144.794,3.62,3.62,0,0,0,.926-.128,3.693,3.693,0,0,0,.891-.36.742.742,0,0,0,.457-.639.578.578,0,0,0-.123-.377.42.42,0,0,0-.335-.16.706.706,0,0,0-.3.084c-.108.052-.174.087-.191.1a5.132,5.132,0,0,1-.634.29,2.006,2.006,0,0,1-.694.108c-.973,0-1.493-.515-1.59-1.571h3.406C385.746,341.73,385.923,341.535,385.923,341.182Zm-1.181-.3h-2.722a1.805,1.805,0,0,1,.439-1.022,1.3,1.3,0,0,1,.988-.39,1.159,1.159,0,0,1,.934.381A1.747,1.747,0,0,1,384.742,340.884Z" transform="translate(-294.168 -336.115)" fill="#fff"/>
      <path id="Trazado_26" data-name="Trazado 26" d="M392.482,341.3h0a5.675,5.675,0,0,0-1.212-.37,3.219,3.219,0,0,1-.974-.322.466.466,0,0,1-.224-.415.551.551,0,0,1,.249-.479,1.217,1.217,0,0,1,.712-.187,1.794,1.794,0,0,1,.63.1,3.816,3.816,0,0,1,.559.276,2.645,2.645,0,0,0,.283.153.465.465,0,0,0,.57-.1.546.546,0,0,0,.13-.368.8.8,0,0,0-.415-.657,2.616,2.616,0,0,0-.789-.359,3.415,3.415,0,0,0-.911-.122,2.939,2.939,0,0,0-1.172.223,1.939,1.939,0,0,0-.822.638,1.561,1.561,0,0,0-.3.936,1.344,1.344,0,0,0,.469,1.077,3.479,3.479,0,0,0,1.477.6,6.937,6.937,0,0,1,.862.229.914.914,0,0,1,.376.218.432.432,0,0,1,.1.3.517.517,0,0,1-.262.465,1.516,1.516,0,0,1-.8.179,2.4,2.4,0,0,1-.781-.109,4.639,4.639,0,0,1-.649-.288,1.162,1.162,0,0,0-.512-.194.413.413,0,0,0-.334.16.566.566,0,0,0-.123.366.665.665,0,0,0,.1.356.959.959,0,0,0,.318.291,3.546,3.546,0,0,0,1.948.491,2.859,2.859,0,0,0,1.706-.466,1.491,1.491,0,0,0,.659-1.262,1.345,1.345,0,0,0-.86-1.357Z" transform="translate(-296.126 -336.115)" fill="#fff"/>
      <path id="Trazado_27" data-name="Trazado 27" d="M398.8,342.781l-.32-.023a.873.873,0,0,1-.612-.252,1.077,1.077,0,0,1-.2-.72v-2.654H398.7a.639.639,0,0,0,.43-.136.5.5,0,0,0,.164-.4.51.51,0,0,0-.161-.393.617.617,0,0,0-.433-.144h-1.029v-1.075a.625.625,0,0,0-.189-.478.69.69,0,0,0-.485-.173.667.667,0,0,0-.48.174.634.634,0,0,0-.182.476v1.075h-.587a.621.621,0,0,0-.433.144.512.512,0,0,0-.161.393c0,.346.211.536.594.536h.587v2.574a2.181,2.181,0,0,0,.479,1.522,2.085,2.085,0,0,0,1.435.592l.308.023c.039,0,.076,0,.112,0a.8.8,0,0,0,.463-.117.482.482,0,0,0,.218-.424.5.5,0,0,0-.135-.367A.651.651,0,0,0,398.8,342.781Z" transform="translate(-297.737 -335.595)" fill="#fff"/>
      <path id="Trazado_28" data-name="Trazado 28" d="M405.947,338.473a.674.674,0,0,0-.485.179.628.628,0,0,0-.188.471v2.667a1.526,1.526,0,0,1-.378,1.083,1.31,1.31,0,0,1-1,.4.963.963,0,0,1-.769-.286,1.417,1.417,0,0,1-.249-.926v-2.94a.635.635,0,0,0-.182-.477.666.666,0,0,0-.479-.173.679.679,0,0,0-.491.173.631.631,0,0,0-.182.477v2.951c0,1.539.711,2.319,2.114,2.319a2.214,2.214,0,0,0,1.072-.261,1.845,1.845,0,0,0,.582-.493v.115a.6.6,0,0,0,.176.448.626.626,0,0,0,.451.169.685.685,0,0,0,.484-.173.594.594,0,0,0,.189-.455v-4.62a.636.636,0,0,0-.182-.477A.668.668,0,0,0,405.947,338.473Z" transform="translate(-299.312 -336.122)" fill="#fff"/>
      <path id="Trazado_29" data-name="Trazado 29" d="M414.021,338.807a3.2,3.2,0,0,0-2.965,0,2.468,2.468,0,0,0-.991,1.044,3.717,3.717,0,0,0,0,3.129,2.476,2.476,0,0,0,.991,1.044,3.2,3.2,0,0,0,2.965,0,2.481,2.481,0,0,0,.991-1.044,3.718,3.718,0,0,0,0-3.129A2.473,2.473,0,0,0,414.021,338.807Zm-.393,4.019a1.321,1.321,0,0,1-1.089.464,1.305,1.305,0,0,1-1.09-.465,2.748,2.748,0,0,1,.005-2.8,1.485,1.485,0,0,1,2.169,0,2.739,2.739,0,0,1,.005,2.8Z" transform="translate(-301.329 -336.115)" fill="#fff"/>
      <path id="Trazado_30" data-name="Trazado 30" d="M422.056,341.3a5.659,5.659,0,0,0-1.212-.37,3.218,3.218,0,0,1-.973-.322.467.467,0,0,1-.225-.415.55.55,0,0,1,.25-.479,1.214,1.214,0,0,1,.711-.187,1.8,1.8,0,0,1,.632.1,3.777,3.777,0,0,1,.558.276,2.982,2.982,0,0,0,.283.153.466.466,0,0,0,.57-.1.551.551,0,0,0,.13-.368.791.791,0,0,0-.415-.657,2.619,2.619,0,0,0-.79-.359,3.4,3.4,0,0,0-.91-.122,2.936,2.936,0,0,0-1.172.223,1.938,1.938,0,0,0-.821.638,1.554,1.554,0,0,0-.3.936,1.344,1.344,0,0,0,.47,1.077,3.475,3.475,0,0,0,1.477.6,7.016,7.016,0,0,1,.861.229.926.926,0,0,1,.376.218.432.432,0,0,1,.1.3.515.515,0,0,1-.263.465,1.513,1.513,0,0,1-.8.179,2.4,2.4,0,0,1-.781-.109,4.662,4.662,0,0,1-.65-.288,1.154,1.154,0,0,0-.511-.194.416.416,0,0,0-.335.16.563.563,0,0,0-.124.366.661.661,0,0,0,.1.356.971.971,0,0,0,.319.292,3.542,3.542,0,0,0,1.947.491,2.863,2.863,0,0,0,1.707-.466,1.491,1.491,0,0,0,.658-1.262,1.345,1.345,0,0,0-.86-1.357Z" transform="translate(-303.415 -336.115)" fill="#fff"/>
      <path id="Trazado_31" data-name="Trazado 31" d="M429.968,339.028a2.29,2.29,0,0,0-1.709-.585,4.456,4.456,0,0,0-1.055.133,4.029,4.029,0,0,0-.956.356,1.122,1.122,0,0,0-.341.28.588.588,0,0,0-.115.357.561.561,0,0,0,.13.38.442.442,0,0,0,.349.158,1.119,1.119,0,0,0,.471-.179,5.765,5.765,0,0,1,.76-.29,2.6,2.6,0,0,1,.723-.1,1.011,1.011,0,0,1,.771.253,1.252,1.252,0,0,1,.237.856v.235h-.168a10.519,10.519,0,0,0-2,.149,1.96,1.96,0,0,0-1.083.523,1.459,1.459,0,0,0-.337,1.011,1.7,1.7,0,0,0,.271.937,1.808,1.808,0,0,0,.747.652,2.338,2.338,0,0,0,1.04.231,1.994,1.994,0,0,0,1.042-.269,1.672,1.672,0,0,0,.5-.46v.068a.6.6,0,0,0,.639.639.656.656,0,0,0,.474-.169.624.624,0,0,0,.177-.47v-2.94A2.446,2.446,0,0,0,429.968,339.028Zm-.735,2.691v.2a1.455,1.455,0,0,1-.373,1.032,1.234,1.234,0,0,1-.952.4.973.973,0,0,1-.676-.237.753.753,0,0,1-.264-.6.6.6,0,0,1,.173-.47,1.262,1.262,0,0,1,.634-.243,8.917,8.917,0,0,1,1.347-.078Z" transform="translate(-305.254 -336.115)" fill="#fff"/>
    </g>
  </g>
</svg>
